{"title":"Rustom 2016 Hindi Movies DVDScr XviD AAC New Source +Sample ☻rDX","uid":15551767,"size":740224620,"categoryP":"video","categoryS":"movies","magnet":"?xt=urn:btih:088937241a9893e7f295b8fa51019d88938c1a49&amp;dn=Rustom+2016+Hindi+Movies+DVDScr+XviD+AAC+New+Source+%2BSample+%E2%98%BBrDX&amp;tr=udp%3A%2F%2Ftracker.leechers-paradise.org%3A6969&amp;tr=udp%3A%2F%2Fzer0day.ch%3A1337&amp;tr=udp%3A%2F%2Fopen.demonii.com%3A1337&amp;tr=udp%3A%2F%2Ftracker.coppersurfer.tk%3A6969&amp;tr=udp%3A%2F%2Fexodus.desync.com%3A6969","seeders":36,"leechers":9,"uploader":"basicssom","files":2,"time":1471031564,"description":"----------------------------------------------------------------\r\nRustom 2016 Hindi Movies DVDScr XviD AAC New Source with Sample ☻rDX☻\r\n\r\nSCREEN SHOTS &amp; POSTER:\r\n  \nhttp://postimage.co.nr/2016/8/software/index.htm  \nhttp://postimage.co.nr/2016/8/software/1.html  \nhttp://postimage.co.nr/2016/8/software/2.html  \nhttp://postimage.co.nr/2016/8/software/3.html  \nhttp://postimage.co.nr/2016/8/software/4.html  \nhttp://postimage.co.nr/2016/8/software/5.html  \nhttp://postimage.co.nr/2016/8/software/6.html  \nhttp://postimage.co.nr/2016/8/software/7.html  \nhttp://postimage.co.nr/2016/8/software/8.html  \nhttp://postimage.co.nr/2016/8/software/9.html  \nhttp://postimage.co.nr/2016/8/software/10.html\r\n\r\nFormat                                   : Matroska\r\nFormat version                           : Version 4 / Version 2\r\nFile size                                : 699 MiB\r\nDuration                                 : 2 h 27 min\r\nOverall bit rate mode                    : Variable\r\nOverall bit rate                         : 662 kb/s\r\nMovie name                               : Rustom 2016 Hindi Movies DVDScr XviD AAC New Source ☻rDX☻\r\n\r\nVideo\r\nID                                       : 1\r\nFormat                                   : MPEG-4 Visual\r\nFormat profile                           : Advanced   \r\nFormat settings, BVOP                    : 2\r\nFormat settings, QPel                    : No\r\nFormat settings, GMC                     : No warppoints\r\nFormat settings, Matrix                  : Default (H.263)\r\nCodec ID                                 : V_MS/VFW/FOURCC / XVID\r\nCodec ID/Hint                            : XviD\r\nDuration                                 : 2 h 27 min\r\nBit rate                                 : 568 kb/s\r\nWidth                                    : 640 pixels\r\nHeight                                   : 272 pixels\r\nDisplay aspect ratio                     : 2.35:1\r\nFrame rate mode                          : Constant\r\nFrame rate                               : 25.000 FPS\r\nColor space                              : YUV\r\nChroma subsampling                       : 4:2:0\r\nBit depth                                : 8 bits\r\nScan type                                : Progressive\r\nCompression mode                         : Lossy\r\nBits/(Pixel*Frame)                       : 0.131\r\nStream size                              : 600 MiB (86%)\r\nTitle                                    : ☻rDX☻\r\nWriting library                          : XviD 67\r\nDefault                                  : Yes\r\nForced                                   : No\r\n\r\nAudio\r\nID                                       : 2\r\nFormat                                   : MPEG Audio\r\nFormat version                           : Version 1\r\nFormat profile                           : Layer 3\r\nMode                                     : Joint stereo\r\nMode extension                           : MS Stereo\r\nCodec ID                                 : A_MPEG/L3\r\nCodec ID/Hint                            : MP3\r\nDuration                                 : 1 h 3 min\r\nBit rate mode                            : Variable\r\nBit rate                                 : 80.0 kb/s\r\nChannel(s)                               : 2 channels\r\nSampling rate                            : 32.0 kHz\r\nCompression mode                         : Lossy\r\nStream size                              : 36.1 MiB (5%)\r\nTitle                                    : ☻rDX☻\r\nWriting library                          : LAME3.99r\r\nEncoding settings                        : -m j -V 4 -q 2 -lowpass 13.5 --abr 80\r\nDefault                                  : Yes\r\nForced                                   : No\r\n\r\nIMDB \nhttp://www.imdb.com/title/tt5165344/","torrent":{"xt":"urn:btih:088937241a9893e7f295b8fa51019d88938c1a49","amp;dn":"Rustom+2016+Hindi+Movies+DVDScr+XviD+AAC+New+Source+%2BSample+%E2%98%BBrDX","amp;tr":["udp%3A%2F%2Ftracker.leechers-paradise.org%3A6969","udp%3A%2F%2Fzer0day.ch%3A1337","udp%3A%2F%2Fopen.demonii.com%3A1337","udp%3A%2F%2Ftracker.coppersurfer.tk%3A6969","udp%3A%2F%2Fexodus.desync.com%3A6969"],"infoHash":"088937241a9893e7f295b8fa51019d88938c1a49","infoHashBuffer":{"type":"Buffer","data":[8,137,55,36,26,152,147,231,242,149,184,250,81,1,157,136,147,140,26,73]},"announce":[],"urlList":[]}}